<svg xmlns="http://www.w3.org/2000/svg" xmlns:xlink="http://www.w3.org/1999/xlink" version="1.1" id="Layer_1" x="0px" y="0px" viewBox="0 0 24 24" style="enable-background:new 0 0 24 24;" xml:space="preserve">
<style type="text/css">
	.st0{fill:#F5792A;}
	.st1{fill:#FFFFFF;}
	.st2{fill:#265787;}
</style>
<path class="st0" d="M7.3,14.8c0,0.3,0.1,0.9,0.3,1.4c0.3,1,0.9,2,1.6,2.8c0.8,0.9,1.7,1.5,2.8,2c1.2,0.5,2.4,0.8,3.7,0.8  c1.3,0,2.5-0.3,3.7-0.8c1.1-0.5,2-1.2,2.8-2c0.7-0.8,1.3-1.7,1.6-2.8c0.3-1,0.4-2,0.3-3.1c-0.1-1-0.5-1.9-1-2.8  c-0.5-0.8-1.1-1.5-1.9-2h0l-7.5-5.8l0,0c-0.5-0.4-1.3-0.4-1.9,0c-0.5,0.4-0.6,1-0.1,1.4l0,0l3.1,2.5l-9.5,0h0C4.4,6.5,3.6,7,3.4,7.7  C3.3,8.3,3.8,8.9,4.6,8.9v0l4.8,0l-8.6,6.6l0,0c-0.8,0.6-1.1,1.7-0.6,2.3c0.5,0.7,1.6,0.7,2.4,0L7.4,14C7.4,14,7.3,14.5,7.3,14.8  L7.3,14.8z"/>
<path class="st1" d="M19.4,16.6c-1,1-2.3,1.5-3.8,1.5c-1.5,0-2.8-0.6-3.8-1.5c-0.5-0.5-0.8-1-1-1.6c-0.4-1.2-0.3-2.4,0.3-3.5  c0.3-0.5,0.7-1,1.2-1.4c0.9-0.8,2.1-1.2,3.4-1.2c1.3,0,2.5,0.4,3.4,1.2c0.5,0.4,0.9,0.9,1.2,1.4c0.3,0.5,0.5,1.1,0.5,1.7  c0.1,0.6,0,1.2-0.2,1.8C20.3,15.6,19.9,16.1,19.4,16.6"/>
<path class="st2" d="M12.5,13.2c0-0.8,0.4-1.5,1-2c0.6-0.5,1.4-0.8,2.2-0.8c0.8,0,1.6,0.3,2.2,0.8c0.6,0.5,1,1.2,1,2  c0,0.8-0.3,1.6-0.9,2.2c-0.6,0.6-1.5,0.9-2.4,0.9c-0.9,0-1.7-0.3-2.4-0.9C12.8,14.8,12.5,14,12.5,13.2"/>
</svg>